<svg width="133" height="32" viewBox="0 0 133 32" fill="none" xmlns="http://www.w3.org/2000/svg">
<path d="M42.8605 16.96C42.8605 15.5733 43.1605 14.34 43.7605 13.26C44.3605 12.1667 45.1939 11.32 46.2605 10.72C47.3405 10.1067 48.5605 9.8 49.9205 9.8C51.5872 9.8 53.0139 10.24 54.2005 11.12C55.3872 12 56.1805 13.2 56.5805 14.72H52.8205C52.5405 14.1333 52.1405 13.6867 51.6205 13.38C51.1139 13.0733 50.5339 12.92 49.8805 12.92C48.8272 12.92 47.9739 13.2867 47.3205 14.02C46.6672 14.7533 46.3405 15.7333 46.3405 16.96C46.3405 18.1867 46.6672 19.1667 47.3205 19.9C47.9739 20.6333 48.8272 21 49.8805 21C50.5339 21 51.1139 20.8467 51.6205 20.54C52.1405 20.2333 52.5405 19.7867 52.8205 19.2H56.5805C56.1805 20.72 55.3872 21.92 54.2005 22.8C53.0139 23.6667 51.5872 24.1 49.9205 24.1C48.5605 24.1 47.3405 23.8 46.2605 23.2C45.1939 22.5867 44.3605 21.74 43.7605 20.66C43.1605 19.58 42.8605 18.3467 42.8605 16.96ZM67.0816 21.52H61.8416L61.0016 24H57.4216L62.5016 9.96H66.4616L71.5416 24H67.9216L67.0816 21.52ZM66.2016 18.88L64.4616 13.74L62.7416 18.88H66.2016ZM85.9343 9.96L80.9543 24H76.6743L71.6943 9.96H75.3343L78.8143 20.56L82.3143 9.96H85.9343ZM90.4504 12.7V15.54H95.0304V18.18H90.4504V21.26H95.6304V24H87.0304V9.96H95.6304V12.7H90.4504ZM110.077 24H106.657L100.937 15.34V24H97.5173V9.96H100.937L106.657 18.66V9.96H110.077V24ZM122.323 9.96V12.7H118.603V24H115.183V12.7H111.463V9.96H122.323Z" fill="#2AA0BD"/>
<g clip-path="url(#clip0_1423_3355)">
<path d="M16 32C24.8366 32 32 24.8366 32 16C32 7.16344 24.8366 0 16 0C7.16344 0 0 7.16344 0 16C0 24.8366 7.16344 32 16 32Z" fill="url(#paint0_linear_1423_3355)"/>
<path d="M17.5739 25.2277C15.4324 23.1407 13.3097 21.0338 11.2169 18.8988C10.0993 17.759 9.91069 16.3298 10.3699 14.8643C10.8192 13.4304 11.8542 12.5172 13.3267 12.1605C14.9152 11.7762 16.2683 12.2548 17.4105 13.3777C18.4396 14.3892 19.45 15.4195 20.6525 16.6256C22.538 14.6745 25.875 11.2262 27.1413 9.9177C27.46 9.58793 27.7001 8.92957 27.7112 8.82296C28.2378 3.79148 21.684 0 16.1219 0C7.28542 0 0.122437 7.16357 0.122437 16C0.122437 24.8364 7.286 32 16.1224 32C22.8731 32 28.3602 28.188 30.705 22.2732C31.1038 21.267 29.6957 18.9878 28.3597 20.3239C25.8404 22.8432 25.8017 22.8531 23.2573 25.3466C21.7467 26.8274 19.1384 26.7524 17.5745 25.2277H17.5739Z" fill="url(#paint1_linear_1423_3355)"/>
</g>
<defs>
<linearGradient id="paint0_linear_1423_3355" x1="0" y1="16" x2="32" y2="16" gradientUnits="userSpaceOnUse">
<stop stop-color="white"/>
<stop offset="1" stop-color="#8ECEE6"/>
</linearGradient>
<linearGradient id="paint1_linear_1423_3355" x1="9.74317" y1="26.9837" x2="21.8761" y2="5.96866" gradientUnits="userSpaceOnUse">
<stop stop-color="#A6DEF2"/>
<stop offset="1" stop-color="#007F9E"/>
</linearGradient>
<clipPath id="clip0_1423_3355">
<rect width="32" height="32" fill="white"/>
</clipPath>
</defs>
</svg>
